<svg xmlns="http://www.w3.org/2000/svg" width="48" height="48" viewBox="0 0 24 24"><rect width="24" height="24" fill="none"/><path fill="currentColor" d="M4.616 20q-.691 0-1.153-.462T3 18.384V5.616q0-.691.463-1.153T4.615 4h14.77q.69 0 1.152.463T21 5.616v12.769q0 .69-.463 1.153T19.385 20zm0-1h14.769q.23 0 .423-.192t.192-.424V5.616q0-.231-.192-.424T19.385 5H4.615q-.23 0-.423.192T4 5.616v12.769q0 .23.192.423t.423.192m.885-2.5h4v-1h-4zm9.05-2.211l4.238-4.239l-.713-.714l-3.525 3.55l-1.425-1.424l-.688.713zM5.5 12.5h4v-1h-4zm0-4h4v-1h-4zM4 19V5z"/></svg>